<svg width="40" height="40" viewBox="0 0 800 800" fill="none" xmlns="http://www.w3.org/2000/svg">
<path fill-rule="evenodd" clip-rule="evenodd" d="M550 425H285.35L388.375 528C398.15 537.75 398.15 553.749 388.375 563.499C378.625 573.249 362.8 573.249 353.025 563.499L211.625 421.976C205.625 415.976 203.75 407.775 205.125 400C203.75 392.225 205.625 384.024 211.625 378.024L353.025 236.626C362.8 226.851 378.625 226.851 388.375 236.626C398.15 246.376 398.15 262.201 388.375 271.976L285.35 375H550C563.825 375 575 386.2 575 400C575 413.825 563.825 425 550 425ZM700 0H100C44.775 0 0 44.775 0 100V700C0 755.25 44.775 800 100 800H700C755.225 800 800 755.25 800 700V100C800 44.775 755.225 0 700 0Z" fill="#FFBC5E"/>
</svg>
