<svg width="444" height="64" viewBox="0 0 444 64" fill="none" xmlns="http://www.w3.org/2000/svg">
<g clip-path="url(#clip0_203_74)">
<path d="M116.87 4.58C128.67 4.58 134.37 10.38 134.37 19.72C134.37 26.72 131.2 30.98 124.69 32.57C133.23 33.97 137.45 38.64 137.45 46.82C137.45 56.06 131.2 62.4 118.27 62.4H94.43V4.58H116.87ZM102.35 12.15V29.4H115.81C123.29 29.4 126.37 25.97 126.37 20.4C126.37 14.83 123.03 12.13 115.81 12.13L102.35 12.15ZM102.35 36.45V54.45H118.55C126.12 54.45 129.55 51.72 129.55 45.91C129.55 39.75 126.29 36.41 118.38 36.41L102.35 36.45ZM150.4 1.5C151.106 1.44945 151.815 1.55137 152.479 1.79884C153.142 2.0463 153.745 2.43354 154.246 2.93429C154.746 3.43505 155.134 4.03761 155.381 4.70113C155.629 5.36466 155.731 6.07364 155.68 6.78C155.68 8.18034 155.124 9.52333 154.134 10.5135C153.143 11.5037 151.8 12.06 150.4 12.06C149 12.06 147.657 11.5037 146.666 10.5135C145.676 9.52333 145.12 8.18034 145.12 6.78C145.069 6.07364 145.171 5.36466 145.419 4.70113C145.666 4.03761 146.054 3.43505 146.554 2.93429C147.055 2.43354 147.658 2.0463 148.321 1.79884C148.985 1.55137 149.694 1.44945 150.4 1.5ZM146.53 18.4H154.1V62.4H146.53V18.4ZM183 55C184.6 54.9523 186.191 54.7446 187.75 54.38V61.68C186.092 62.1539 184.375 62.3896 182.65 62.38C173.23 62.38 168.65 56.84 168.65 48.65V25.43H161.52V18.43H168.65V9.06H176V18.39H187.7V25.39H176V48.49C176 52.36 178.3 54.99 183 54.99V55ZM218.95 63.27C212.53 63.27 207.6 60.37 204.95 54.65V62.39H197.38V0H205V26.3C207.82 20.5 213.1 17.5 219.87 17.5C231.57 17.5 237.47 27.44 237.47 40.38C237.43 52.78 231.27 63.26 218.95 63.26V63.27ZM217.8 24.55C211 24.55 205 28.85 205 38.63V42.15C205 51.92 210.54 56.23 217 56.23C225.54 56.23 229.94 50.6 229.94 40.39C229.86 29.83 225.64 24.55 217.8 24.55ZM245.35 18.39H252.92V45C252.92 52.92 256.09 56.44 263.3 56.44C270.3 56.44 275.18 51.78 275.18 42.89V18.4H282.75V62.4H275.18V55.18C273.832 57.678 271.822 59.7558 269.369 61.1849C266.917 62.614 264.118 63.3389 261.28 63.28C251.16 63.28 245.35 56.28 245.35 44.18V18.39ZM325.25 61.25C322.61 62.65 318.55 63.25 314.51 63.25C298.85 63.25 291.51 53.75 291.51 40.25C291.51 26.95 298.81 17.45 314.51 17.45C318.128 17.3473 321.72 18.0904 325 19.62V26.62C321.873 25.1612 318.449 24.4524 315 24.55C303.56 24.55 298.9 31.75 298.9 40.3C298.9 48.85 303.65 56.05 315.18 56.05C318.582 56.1403 321.972 55.6047 325.18 54.47L325.25 61.25ZM333.88 62.39V0H341.45V39L360.37 18.4H370.23L349.54 40L371.1 62.4H360.8L341.44 41.8V62.4L333.88 62.39ZM396.18 63.27C379.72 63.27 372.51 53.77 372.51 40.27C372.51 26.97 379.91 17.47 393.28 17.47C406.83 17.47 412.28 26.89 412.28 40.27V43.7H380.16C381.22 51.18 386.06 56.02 396.44 56.02C401.004 56.019 405.533 55.2169 409.82 53.65V60.65C406.22 62.57 400.67 63.27 396.18 63.27ZM380.08 37.27H404.63C404.19 29.09 400.49 24.42 392.93 24.42C384.91 24.38 380.87 29.57 380.08 37.22V37.27ZM438.68 55C440.28 54.9523 441.871 54.7446 443.43 54.38V61.68C441.772 62.1539 440.055 62.3896 438.33 62.38C428.91 62.38 424.33 56.84 424.33 48.65V25.43H417.2V18.43H424.33V9.06H431.73V18.39H443.43V25.39H431.73V48.49C431.74 52.36 434.01 54.99 438.69 54.99L438.68 55Z" fill="#FFBC5E"/>
<path d="M1.99998 6.25999C1.7081 6.25623 1.41893 6.3164 1.15278 6.43628C0.886637 6.55617 0.649957 6.73286 0.459362 6.95395C0.268768 7.17504 0.128879 7.43517 0.0495177 7.71607C-0.0298435 7.99698 -0.0467535 8.29186 -2.48328e-05 8.57999L8.49998 60.12C8.60576 60.7507 8.93039 61.324 9.41684 61.7391C9.9033 62.1542 10.5205 62.3847 11.16 62.39H51.9C52.3794 62.3962 52.845 62.2299 53.2121 61.9216C53.5792 61.6132 53.8233 61.1832 53.9 60.71L62.4 8.59999C62.4467 8.31186 62.4298 8.01698 62.3504 7.73607C62.2711 7.45517 62.1312 7.19504 61.9406 6.97395C61.75 6.75286 61.5133 6.57617 61.2472 6.45628C60.981 6.3364 60.6919 6.27623 60.4 6.27999L1.99998 6.25999ZM37.75 43.5H24.75L21.23 25.1H40.9L37.75 43.5Z" fill="#FFBC5E"/>
<path d="M59.67 25.12H40.9L37.75 43.52H24.75L9.40002 61.73C9.88655 62.1507 10.5069 62.3846 11.15 62.39H51.9C52.3794 62.3962 52.8451 62.2299 53.2122 61.9216C53.5792 61.6132 53.8234 61.1832 53.9 60.71L59.67 25.12Z" fill="url(#paint0_linear_203_74)"/>
</g>
<defs>
<linearGradient id="paint0_linear_203_74" x1="64.01" y1="30.27" x2="32.99" y2="54.48" gradientUnits="userSpaceOnUse">
<stop offset="0.18" stop-color="#FFBC5E"/>
<stop offset="1" stop-color="#BA7C26"/>
</linearGradient>
<clipPath id="clip0_203_74">
<rect width="443.43" height="63.27" fill="white"/>
</clipPath>
</defs>
</svg>
