<svg width="455" height="513" viewBox="0 0 455 513" fill="none" xmlns="http://www.w3.org/2000/svg">
<path d="M435.279 113.784L247.191 5.19248C236.356 -1.06416 218.624 -1.06416 207.789 5.19248L19.7009 113.784C8.86465 120.039 0 135.396 0 147.908V365.092C0.842986 379.664 8.28556 391.732 19.7009 399.216L207.789 507.807C218.624 514.064 236.356 514.064 247.191 507.807L435.279 399.216C447.527 391.07 454.499 378.808 454.98 365.092V147.908C454.54 134.743 446.657 121.465 435.279 113.784ZM75.8301 256.501C74.9389 108.412 273.289 43.0217 358.826 180.623L293.192 218.604C253.57 153.07 155.191 176.502 151.66 256.501C152.72 330.23 249.414 364.479 293.196 294.393L358.831 332.372C283.448 463.235 79.6318 416.153 75.8301 256.501ZM379.15 264.925H362.298V281.777H345.449V264.925H328.597V248.075H345.449V231.224H362.298V248.075H379.15V264.925ZM442.342 264.925H425.49V281.777H408.641V264.925H391.789V248.075H408.641V231.224H425.49V248.075H442.342V264.925Z" fill="#FFBC5E"/>
</svg>
