<svg width="800" height="800" viewBox="0 0 800 800" fill="none" xmlns="http://www.w3.org/2000/svg">
<g clip-path="url(#clip0_218_4)">
<path d="M333.333 650H100V150H666.667C675.507 150 683.986 146.488 690.237 140.237C696.488 133.986 700 125.507 700 116.667C700 107.826 696.488 99.3477 690.237 93.0964C683.986 86.8452 675.507 83.3333 666.667 83.3333H66.6667C57.8262 83.3333 49.3477 86.8452 43.0965 93.0964C36.8453 99.3477 33.3334 107.826 33.3334 116.667V683.333C33.3334 692.174 36.8453 700.652 43.0965 706.904C49.3477 713.155 57.8262 716.667 66.6667 716.667H333.333C342.174 716.667 350.652 713.155 356.904 706.904C363.155 700.652 366.667 692.174 366.667 683.333C366.667 674.493 363.155 666.014 356.904 659.763C350.652 653.512 342.174 650 333.333 650Z" fill="#FFBC5E"/>
<path d="M766.667 400C766.667 342.536 743.839 287.426 703.206 246.794C662.574 206.161 607.464 183.333 550 183.333C499.42 183.074 450.392 200.794 411.667 233.333H200C191.159 233.333 182.681 236.845 176.43 243.096C170.179 249.348 166.667 257.826 166.667 266.667C166.667 275.507 170.179 283.986 176.43 290.237C182.681 296.488 191.159 300 200 300H358.333C346.928 320.638 339.574 343.267 336.667 366.667H200C191.159 366.667 182.681 370.179 176.43 376.43C170.179 382.681 166.667 391.159 166.667 400C166.667 408.841 170.179 417.319 176.43 423.57C182.681 429.821 191.159 433.333 200 433.333H336.667C339.574 456.733 346.928 479.362 358.333 500H200C191.159 500 182.681 503.512 176.43 509.763C170.179 516.014 166.667 524.493 166.667 533.333C166.667 542.174 170.179 550.652 176.43 556.904C182.681 563.155 191.159 566.667 200 566.667H411.667L433.333 581.667V743.333C432.833 752.973 435.987 762.446 442.167 769.861C448.346 777.276 457.095 782.087 466.667 783.333C470.77 783.237 474.81 782.3 478.537 780.58C482.264 778.86 485.598 776.394 488.333 773.333L550 716.667L611.667 773.333C614.402 776.394 617.736 778.86 621.463 780.58C625.19 782.3 629.23 783.237 633.333 783.333C642.905 782.087 651.654 777.276 657.833 769.861C664.013 762.446 667.167 752.973 666.667 743.333V583.333C697.218 563.451 722.351 536.289 739.806 504.288C757.261 472.288 766.491 436.451 766.667 400ZM600 541.667V671.667L550 625L500 671.667V541.667C470.85 531.105 445.637 511.864 427.757 486.534C409.877 461.205 400.19 431.004 400 400C400 360.218 415.804 322.064 443.934 293.934C472.064 265.804 510.218 250 550 250C589.782 250 627.936 265.804 656.066 293.934C684.196 322.064 700 360.218 700 400C699.81 431.004 690.123 461.205 672.243 486.534C654.363 511.864 629.15 531.105 600 541.667Z" fill="#FFBC5E"/>
<path d="M550 483.333C596.024 483.333 633.333 446.024 633.333 400C633.333 353.976 596.024 316.667 550 316.667C503.976 316.667 466.667 353.976 466.667 400C466.667 446.024 503.976 483.333 550 483.333Z" fill="#FFBC5E"/>
</g>
<defs>
<clipPath id="clip0_218_4">
<rect width="800" height="800" fill="white"/>
</clipPath>
</defs>
</svg>
