<svg width="128" height="99" viewBox="0 0 128 99" fill="none" xmlns="http://www.w3.org/2000/svg">
<path d="M127 15.9C127 11.6 123.5 8 119.1 8H8.9C4.5 8 1 11.5 1 15.9V55.2C1 59.5 4.5 63 8.9 63H119.2C123.5 63 127.1 59.5 127.1 55.1V15.9H127ZM125 55.1C125 58.3 122.4 61 119.1 61H8.9C5.6 61 3 58.4 3 55.1V15.9C3 12.6 5.6 10 8.9 10H119.1C122.3 10 125 12.6 125 15.9V55.1ZM30 17H24V26.2C23 26 22.3 25.9 21.4 25.9C15.3 25.9 11.3 29.8 11.3 35.8C11.3 42 15.2 45.2 22.3 45.2C24.7 45.2 27.1 45 30.1 44.4V17H30ZM24 40.3C23 40.4 22.5 40.5 21.9 40.5C18.9 40.5 17.2 38.8 17.2 35.7C17.2 32.5 19 30.7 22 30.7C22.7 30.7 23.1 30.8 24.1 31V40.3H24ZM33 17H39V23H33V17ZM33 37.9C33 43 32.8 44.9 32 46.6C31.2 48.2 30 49.3 27.4 50.5L32.9 53.1C35.5 51.8 36.8 50.6 37.7 48.8C38.7 46.9 39.1 44.6 39.1 39.9V26H33.1V37.9H33ZM50.5 25.9C47.8 25.9 46 26.4 43 27.7V32.2C45 31 47.3 30.4 49.4 30.4C50.9 30.4 51 30.8 51 31.8V33.1C45 33.7 41.1 35.6 41.1 39.7C41.1 43.5 43 45.2 47.9 45.2C50.3 45.2 54 44.9 56 44.6V32.7C56 30.3 56.4 29.1 55.9 28.2C55 26.7 53.5 25.9 50.5 25.9ZM51 40.9C50 41.1 49.4 41.2 48.5 41.2C46.9 41.2 46 40.7 46 39.5C46 38 48 37.4 51 37V40.9ZM68.5 25.9C65.6 25.9 63 26.3 59 27.2V45H65V31.1C66 30.8 67.1 30.7 67.9 30.7C70 30.7 71 31.5 71 33.8V45H77V33.5C77 30.6 76.4 29.2 75.2 27.9C73.9 26.6 71.5 25.9 68.5 25.9ZM97.5 31L99.6 26.8C96.8 26.2 94.5 26 92 26C83.4 26 78.6 29.8 78.6 36.4C78.6 41.8 81.9 45.2 87 45.2C88.5 45.2 89.8 45 90.8 44.4V44.5C90.8 48.2 89 49.8 85.2 49.8C83 49.8 80.8 49.3 78.8 48.2V53.6C80.8 54.4 82.9 54.7 85.2 54.7C89.7 54.7 93.1 53.3 94.9 50.4C96.2 48.5 96.8 46.1 96.8 41.1V39.5L96.6 37.1L96.4 34L96 31.5V30.9C98 31 96 30.7 97.5 31ZM91 39.6V40C90 40.2 89.6 40.4 88.8 40.4C86.2 40.4 84.8 38.7 84.8 35.8C84.8 33.7 85.5 32 86.9 31.2C87.8 30.6 89.1 30 90.3 30H91V39.6ZM108.9 25.9C102.9 25.9 99.2 29.7 99.2 35.9C99.2 41.8 102.8 45.5 108.7 45.5C114.6 45.5 118.4 41.7 118.4 35.5C118.3 29.5 114.7 25.9 108.9 25.9ZM108.8 40.8C106.5 40.8 105.2 38.9 105.2 35.7C105.2 32.5 106.5 30.6 108.9 30.6C111.1 30.6 112.4 32.5 112.4 35.7C112.3 38.9 111 40.8 108.8 40.8Z" fill="#FFBC5E"/>
</svg>
