<svg width="256" height="330" viewBox="0 0 256 330" fill="none" xmlns="http://www.w3.org/2000/svg">
<path d="M76.5 203.85C66.75 196.18 56.347 188.83 49.24 178.472C34.28 160.2 22.764 139.07 14.9 116.85C10.13 102.4 8.5 86.9 2.36 73.02C-4.055 62.93 3.465 51.906 14.517 48.7C19.434 47.753 28.085 43.1 17.642 46.432C8.278 53.299 7.375 40.192 16.976 39.362C23.528 38.492 25.94 33.132 23.696 28.305C16.66 23.705 40.751 18.68 28.628 11.833C16 -1.80001 46.3 -4.40001 38.818 11.06C37.032 22.955 59.984 8.87499 54.654 22.614C60.069 29.214 74.926 24.119 74.554 33.371C82.44 33.913 85.147 40.544 92.554 41.055C100.231 44.52 114.134 47.247 116.742 55.892C109.142 61.915 91.515 43.449 90.665 60.124C92.967 84.762 92.379 110.141 101.39 133.602C105.652 147.806 115.99 158.986 125.32 170.052C134.252 180.886 146.35 188.518 158.683 194.939C169.499 200.039 181.158 203.419 192.948 205.545C197.728 201.889 206.168 188.295 213.624 194.023C213.984 200.471 198.828 207.493 212.924 206.781C221.202 204.283 226.937 213.176 233.75 205.151C240.027 212.587 259.85 200.404 255.375 215.601C249.335 219.498 240.525 217.143 234.477 222.506C224.505 217.523 216.565 226.959 205.522 225.769C193.262 227.965 180.784 228.849 168.354 228.869C147.958 227.269 127.132 226.581 107.73 219.469C96.797 216.292 86.132 210.066 76.525 203.841L76.5 203.85ZM93.724 211.318C104.396 215.918 114.824 220.793 126.531 222.264C145.089 224.84 164.254 228.816 182.878 225.194C174.448 221.389 165.733 226.672 157.336 222.474C147.266 224.638 136.458 221.918 126.216 220.577C114.576 215.393 102.01 211.829 91.109 205.093C77.481 200.118 98.151 211.476 101.833 212.398C110.347 217.228 92.469 209.918 89.933 207.912C82.8 203.909 81.891 204.746 89.228 208.808C90.704 209.672 92.164 210.581 93.713 211.308L93.724 211.318ZM73.424 196.965C83.769 200.797 73.379 189.693 68.644 190.335C66.544 186.692 60.621 184.391 64.799 182.435C57.286 185.035 56.926 172.515 53.396 174.308C45.446 171.808 50.302 162.903 40.828 157.438C39.964 151.683 31.428 146.694 28.698 138.016C27.494 133.57 19.038 120.812 24.232 132.686C28.652 144.116 36.427 153.912 42.9 163.688C47.922 172.988 53.86 182.736 63.008 188.543C66.095 191.503 69.07 196.036 73.424 196.965ZM43.624 164.25C45.524 167.63 43.982 162.686 43.624 164.25ZM85.807 201.555C88.095 200.529 82.511 200.261 85.807 201.555ZM91.407 203.602C90.827 200.776 88.844 205.184 91.407 203.602ZM98.437 206.532C101.777 203.346 93.277 204.532 98.437 206.532ZM110.481 213.246C112.515 210.246 103.974 212.116 110.481 213.246ZM87.353 197.122C92.553 193.762 80.637 197.075 87.353 197.122ZM92.623 199.75C92.473 197.977 90.746 200.547 92.623 199.75ZM118.968 216.195C123.205 218.87 143.706 222.055 130.87 217.293C128.717 217.745 107.067 211.166 118.968 216.195ZM77.156 183.62C76.744 181.842 70.576 181.65 77.156 183.62ZM89.416 190.775C92.613 188.545 82.792 189.055 89.416 190.775ZM99.736 197.098C104.319 195.372 92.308 195.365 99.736 197.098ZM72.16 178.198C77.13 182.01 92.21 178.698 79.772 175.923C74.116 172.908 61.365 170.843 70.056 177.741L72.16 178.198ZM106.726 199.294C108.798 195.769 98.041 197.279 106.726 199.294ZM96.223 190.949C108.373 194.382 86.003 183.249 93.223 189.679L94.825 190.406L96.223 190.948V190.949ZM117.28 203.119C128.78 203.219 106.883 201.519 117.28 203.119ZM67.733 171.519C67.281 169.375 64.896 171.696 67.733 171.519ZM136.747 214.017C137.053 210.147 132.992 216.901 136.747 214.017ZM87.377 183.545C86.677 181.505 83.781 183.46 87.377 183.545ZM68.827 170.173C75.433 169.775 59.777 167.273 68.827 170.173ZM46.85 155.98C46.026 152.81 39.664 150.285 46.85 155.98ZM104.544 192.594C103.974 192.894 103.344 191.214 104.544 192.594ZM140.45 214.63C140.35 212.517 138.495 215.427 140.45 214.63ZM101.367 189.31C102.015 186.59 95.731 188.485 101.367 189.31ZM74.6 172.353C79.518 171.829 66.72 169.03 74.6 172.353ZM119.85 200.471C127.514 197.436 112.382 198.993 119.85 200.471ZM96.315 184.496C105.142 185.633 85.807 178.496 94.373 183.856L96.315 184.496ZM126.995 203.36C135.241 198.437 132.521 214.902 140.983 204.753C149.326 198.66 133.776 212.286 144.056 205.839C151.496 200.862 162.482 208.199 169.42 210.586C174.42 210.343 179.26 214.902 184.38 212.128C194.228 209.473 165.117 208.192 172.747 203.49C163.747 206.113 157.08 200.365 152.647 194.59C142.547 192.255 130.853 187.09 125.804 178.138C123.744 174.783 128.774 178.615 124.026 173.123C117.938 167.708 114.898 161.553 110.81 154.97C105.925 152.367 105.35 144.697 104.86 154.716C104.9 148.392 98.963 144.136 97.51 145.901C97.483 139.813 103.866 142.866 99.41 138.361C98.45 132.061 95.284 125.473 94.334 118.345C92.858 114.912 94.134 107.545 89.287 115.33C87.527 123.55 88.704 105.234 91.445 111.27C95.041 105.11 90.149 105.836 89.953 106.687C92.295 101.489 91.438 94.112 89.339 96.924C90.589 91.412 91.314 76.64 87.476 79.262C89.803 73.495 91.89 52.882 81.779 60.744C77.686 60.804 70.592 62.229 67.244 63.896C77.752 69.69 66.184 65.988 61.901 65.066C61.345 70.428 57.108 68.113 51.801 68.166C60.263 69.212 47.681 76.816 42.837 73.863C36.533 76.871 48.271 84.391 42.961 86.718C43.616 90.218 33.309 85.451 34.114 93.546C27.999 90.968 33.277 103.146 36.337 99.026C46.741 101.846 43.661 108.26 43.922 114.36C42.228 117.91 35.552 106.01 42.437 106.56C37.003 97.738 36.429 103.36 31.917 107.46C30.871 107.755 43.417 113.292 35.547 116.026C42.479 117.099 42.682 123.166 44.094 127.006C48.259 131.346 47.402 122.212 52.392 127.431C49.232 122.781 35.677 114.331 46.592 117.031C46.532 112.356 44.617 108.581 47.965 108.673C51.281 102.677 44.493 123.473 51.961 115.841C54.027 114.939 54.544 109.838 58.259 116.325C63.653 121.625 60.209 125.478 52.596 120.625C53.956 125.249 62.776 126.895 61.116 134.122C62.874 140.478 65.333 138.136 67.476 137.77C69.156 143.944 70.113 139.405 70.191 136.463C77.886 138.113 76.091 142.663 78.494 145.841C83.797 148.233 70.902 129.617 80.006 140.243C89.586 148.893 83.602 152.503 75.004 151.117C80.444 150.677 82.204 158.474 89.004 158.2C95.209 161.155 99.404 172.494 88.716 167.772C85.008 164.424 71.871 160.298 82.603 166.66C92.503 171.26 100.376 173.99 109.929 179.752C116.762 184.63 119.717 190.219 122.307 191.326C116.56 194.071 104.993 189.126 113.584 187.626C108.222 186.652 102.184 183.938 107.327 190.614C111.694 194.264 122.791 193.877 124.787 194.288C123.1 198.003 120.204 198.288 124.852 198.585C119.666 201.35 126.519 201.782 126.996 203.358L126.995 203.36ZM116.4 173.406C113.24 170.103 112.424 163.924 115.838 169.298C117.591 170.004 121.443 179.402 116.4 173.406ZM150.946 195.35C152.916 195.22 151.006 196.847 150.946 195.35ZM111.418 165.31C112.555 169.16 111.292 160.31 111.418 165.31ZM107.985 160.693C112.987 162.863 104.009 153.023 107.985 160.693ZM66.369 131.973C68.704 131.35 67.521 135.96 66.369 131.973ZM99.491 149.923C101.171 154.436 100.921 144.541 99.491 149.923ZM76.094 133.653C79.541 136.44 74.447 130.685 76.094 133.653ZM96.169 140.088C92.409 131.666 98.837 135.485 97.006 141.468L96.169 140.088ZM61.547 117C59.867 114.235 57.087 106.126 57.983 103.648C58.787 107.682 66.556 121.002 61.788 109.168C56.525 99.248 68.086 112.384 69.276 114.863C69.832 117.323 66.026 114.19 68.601 119.963C63.901 113.391 65.829 123.593 61.547 117ZM50.847 109.624C53.293 114.032 51.287 103.196 50.847 109.624ZM55.66 111.284C59.56 118.044 57.955 106.434 55.66 111.284ZM44.08 102.326C40.098 98.362 37.213 94.714 44.28 99.866C46.994 99.97 38.24 91.568 44.935 97.198C51.971 98.48 48.407 108.74 44.091 102.325L44.08 102.326ZM50.162 102.169C52.477 99.874 51.392 104.426 50.162 102.169ZM53.908 103.366C58.165 106.126 50.396 96.794 53.908 103.366ZM46.468 96.258C34.888 85.945 61.018 101.645 48.368 98.166L46.468 96.258ZM79.653 115.534C74.638 112.534 78.319 94.381 80.033 106.792C84.903 105.215 79.763 113.207 83.393 113.128C82.826 118.168 81.197 119.981 79.653 115.534ZM91.927 122.792C92.96 126.532 92.427 117.32 91.927 122.792ZM89.797 120.679C90.347 118.345 89.849 123.433 89.797 120.679ZM48.737 92.879C41.297 82.612 70.362 103.263 53.505 95.482C51.745 95.018 49.621 94.854 48.737 92.879ZM72.375 105.409C73.945 106.839 71.67 96.764 72.375 105.409ZM90.319 116.923C91.705 112 90.424 120.181 90.319 116.923ZM49.879 88.953C54.299 88.006 68.201 96.715 55.437 91.439C54.019 89.869 50.991 90.582 49.879 88.953ZM87.849 107.878C88.321 99.038 90.492 102.602 87.869 109.148L87.849 107.878ZM53.17 85.875C54.975 83.232 48.382 73.928 54.117 82.539C56.597 84.509 61.29 85.835 57.145 86.665C63.665 92.413 55.545 88.222 53.169 85.865L53.17 85.875ZM85.975 105.119C87.219 95.049 87.075 111.016 85.975 105.119ZM49.405 76.576C50.785 75.976 50.137 78.412 49.405 76.576ZM57.965 81.67C62.025 86.823 60.168 77.046 57.965 81.67ZM82.1 95.094C82.557 97.677 82.08 93.324 82.1 95.094ZM80.7 92.002C83.82 96.376 77.352 83.736 80.7 92.002ZM78.646 86.58C80.546 90.88 78.086 83.167 78.646 86.58ZM81.994 81.14C79.692 77.092 84.898 63.29 85.481 71.84C83.054 78.51 84.781 82.237 86.467 73.29C89.594 66.254 85.794 87.186 81.994 81.13V81.14ZM85.434 60.615C86.434 59.385 85.657 62.098 85.434 60.615ZM79.687 173.815C79.863 174.567 78.327 172.615 79.687 173.815ZM91.522 179.798C98.106 181.492 98.074 178.778 92.122 177.968C88.925 174.993 78.822 171.834 87.865 177.601C88.461 179.119 90.351 179.079 91.521 179.799L91.522 179.798ZM68.152 164.273C71.775 166.973 81.812 171.937 73.318 165.308C76.182 161.978 67.838 160.208 70.604 157.978C63.562 153.678 65.044 154.054 69.984 154.191C61.522 150.404 71.206 150.691 70.749 148.751C67.486 148.111 54.549 142.996 62.156 149.169C54.414 145.225 60.311 150.639 57.971 150.071C50.051 147.913 65.021 156.101 56.716 154.067C61.254 157.663 68.938 163.287 58.631 157.872C57.278 159.827 66.008 162.79 68.153 164.272L68.152 164.273ZM80.53 171.387C95.578 176.233 73.148 165.457 80.53 171.387ZM143.894 209.772C144.09 206.784 141.84 212.322 143.894 209.772ZM150.408 212.512C153.88 209.152 150.552 217.874 156.162 211.688C156.222 207.26 155.992 204.646 149.715 210.026C147.981 210.989 147.211 215.061 150.408 212.512ZM47.024 147.597C45.958 143.405 39.55 143.424 47.024 147.597ZM53.974 152.154C51.391 147.872 44.76 148.277 53.974 152.154ZM93.542 176.014C97.407 179.447 111.282 178.532 98.242 176.439C96.312 173.581 85.975 174.269 93.542 176.014ZM147.927 209.606C153.871 204.606 142.167 211.829 147.927 209.606ZM160.293 218.1C160.333 216.498 157.73 218.8 160.293 218.1ZM160.313 215.857C166.897 208.887 153.937 216.269 160.313 215.857ZM29.917 133.277C24.317 125.274 26.432 121.677 21.017 115.137C19.989 110.135 11.731 98.795 16.747 110.807C21.347 117.837 22.697 128.707 29.917 133.275V133.277ZM158.245 213.642C170.363 205.814 153.277 210.235 158.245 213.642ZM167.492 217.265C173.56 212.059 163.654 216.179 167.492 217.265ZM44.962 138.75C46.696 136.167 40.477 138.417 44.962 138.75ZM165.562 214.793C171.434 211.008 164.209 211.589 164.497 215.14L165.562 214.793ZM85.865 164.56C85.662 161.997 82.76 164.776 85.865 164.56ZM90.788 167.392C89.218 164.226 88.382 167.889 90.788 167.392ZM174.985 217.352C182.511 211.922 170.428 216.312 173.41 218.385L174.985 217.352ZM172.102 215.959C178.236 210.825 165.634 218.234 172.102 215.959ZM186.826 225.759C190.941 223.005 181.824 224.859 186.826 225.759ZM48.726 136.887C54.238 138.122 70.769 150.467 61.02 137.744C56.025 136.266 59.02 124.057 53.926 126.214C57.346 131.929 56.726 134.354 49.556 130.759C40.54 126.351 44.489 132.937 46.256 134.755C43.849 135.305 49.433 136.841 48.726 136.885V136.887ZM23.608 117.04C24.594 112.952 14.512 94.572 18.848 107.826C20.41 110.606 20.248 115.868 23.608 117.04ZM69.733 145.478C69.596 145.138 66.889 143.104 69.733 145.478ZM76.733 147.108C76.733 142.778 69.003 145.348 76.733 147.108ZM137.35 185.315C136.193 182.359 132.78 185.25 137.35 185.315ZM140.25 187.439C139.818 185.785 138.57 187.759 140.25 187.439ZM164.275 202.577C166.583 200.871 161.391 202.357 164.275 202.577ZM36.155 120.245C42.755 117.687 29.072 118.42 36.155 120.245ZM132.003 180.625C131.926 176.348 127.786 181.691 132.003 180.625ZM33.545 114.155C37.789 112.725 29.615 113.215 33.545 114.155ZM45.865 120.125C45.793 118.721 44.565 120.662 45.865 120.125ZM196.165 212.293C201.625 211.188 214.068 215.073 216.065 210.848C209.435 210.684 193.133 206.166 192.361 211.918L193.811 212.148L196.153 212.292L196.165 212.293ZM49.78 121.113C49.88 116.777 46.4 120.951 49.78 121.113ZM17.4 98.64C15.93 90.38 11.802 97.39 17.4 98.64ZM25.122 100.582C25.222 97.927 18.052 98.195 25.122 100.582ZM29.536 102.752C28.542 104.052 28.26 101.717 29.536 102.752ZM57.3 120.57C58.6 119.366 54.2 119.67 57.3 120.57ZM26.6 97.87C25.848 91.63 17.647 96.934 26.6 97.87ZM10.745 87.57C10.522 84.692 9.202 88.655 10.745 87.57ZM13.105 85.792C12.72 82.377 11.078 86.222 13.105 85.792ZM26.12 93.57C31.626 91.412 16.094 89.097 24.995 93.165L26.12 93.57ZM200.345 201.2C203.869 197.97 195.872 200.2 200.345 201.2ZM221.395 212.108C222.808 207.936 217.838 212.658 221.395 212.108ZM27.45 86.75C28.033 82.71 23.083 87.554 27.45 86.75ZM8.927 74.34C7.933 68.638 8.07 58.626 17.585 62.008C4.885 64.532 26.38 77.808 23.667 67.323C29.009 67.586 34.117 64.166 31.31 69.35C41.838 68.193 49.13 59.065 59.298 60.347C67.216 59.294 75.874 58.502 84.398 55.312C91.414 54.808 98.168 47.255 94.325 42.775C84.758 41.975 74.739 43.162 64.165 45.268C52.447 47.7 41.802 52.328 29.979 54.318C18.449 55.868 32.294 58.582 28.991 59.188C22.991 61.274 36.164 62.68 28.213 64.883C23.313 63.949 18.189 62.263 20.288 57.083C9.26 58.522 -0.444 63.1 8.28 74.333L8.928 74.34H8.927ZM35.535 60.8C38.118 51.267 49.397 68.648 39.772 62.07C38.627 61.206 36.73 60.506 35.535 60.8ZM36.037 56.176C39.772 53.396 38.019 57.74 36.037 56.176ZM40.777 56.256C41.117 51.868 51.64 58.578 42.511 57.833L40.777 56.256ZM47.264 53.648C49.638 50.874 47.952 56.105 47.264 53.648ZM48.926 52.536C52.876 47.796 71.269 49.508 57.806 52.071C54.206 49.351 51.431 53.673 48.926 52.536ZM72.926 48.836C84.86 53.433 72.332 35.881 72.926 48.836ZM79.741 48.796C82.241 42.271 89.411 46.176 80.898 47.482C81.08 48.182 80.644 50.857 79.741 48.796ZM24.765 83.402C32.205 78.844 16.865 79.446 24.765 83.402ZM30.271 84.925C32.871 82.153 24.594 83.8 30.271 84.925ZM14.054 73.425C18.304 70.155 9.019 72.183 14.054 73.425ZM233.818 210.9C233.942 207.107 230.568 212.606 233.818 210.9ZM211.488 195.657C212.122 191.297 208.618 196.037 211.488 195.657ZM239.958 212.372C245.902 212.392 257.972 210.522 245.038 210.527C243.004 210.842 233.21 210.777 239.958 212.372ZM35.1 82.25C39.913 81.924 42.626 76.947 34.164 77.228C21.064 75.875 45.731 81.721 32.484 80.048C30.706 81.225 34.984 82.577 35.1 82.25ZM39.337 84.396C38.833 81.309 37.845 86.036 39.337 84.396ZM44.367 70.991C46.453 68.391 41.467 70.298 44.367 70.991ZM28.367 44.241C36.96 41.325 48.704 38.041 52.759 45.681C48.633 40.718 51.092 35.826 54.989 43.081C60.501 50.425 63.259 39.741 59.676 37.274C63.764 42.348 68.406 44.748 62.41 37.594C68.93 29.754 49.365 38.62 44.918 38.528C42.78 39.488 22.83 43.615 28.368 44.23L28.367 44.241ZM33.402 34.604C38.3 30.909 50.345 36.807 42.616 30.928C41.858 30.262 25.694 35.388 33.402 34.604ZM51.26 35.342C56.988 35.486 48.79 27.638 55.616 31.196C54.498 27.536 47.666 26.849 44.323 25.384C42.423 28.732 48.166 35.388 51.26 35.344V35.342ZM36.534 19.13C38.516 16.443 33.054 20.498 36.534 19.13ZM43.834 20.876C53.074 19.654 41.479 16.9 41.969 20.779L43.834 20.876ZM30.204 10.216C23.697 1.72199 42.439 11.642 35.827 2.74799C30.263 -1.67801 24.921 7.74799 30.204 10.216ZM113.674 55.173C116.657 49.888 101.362 48.045 111.667 53.301C112.614 53.616 112.4 55.537 113.674 55.173ZM53.107 251.993C52.447 254.6 52.037 258.973 51.885 265.11C51.885 266.316 51.342 266.91 50.255 266.91C49.168 266.91 48.408 266.383 47.979 265.335C46.813 262.497 45.709 260.518 44.655 259.388C43.412 258.068 41.76 257.271 39.7 256.988C37.485 256.638 31.967 256.463 23.145 256.463C21.125 256.463 19.801 256.678 19.182 257.107C18.782 257.377 18.6 257.961 18.6 258.855V285.255C18.6 286.149 19.163 286.575 20.287 286.538C23.749 286.498 28.761 286.262 35.327 285.838C36.61 285.68 37.477 285.264 37.922 284.583C38.367 283.902 38.809 282.146 39.234 279.308C39.504 277.753 40.42 277.15 41.974 277.503C43.294 277.775 43.861 278.378 43.667 279.308C42.567 284.596 42.225 291.475 42.614 299.948C42.654 300.956 42.014 301.503 40.691 301.58C39.591 301.697 38.921 301.114 38.651 299.83C37.644 294.972 35.765 292.377 33.027 292.044C30.287 291.716 25.825 291.551 19.647 291.551C18.947 291.551 18.599 291.801 18.599 292.308V318.543C18.599 320.486 19.315 321.81 20.753 322.506C21.883 323.09 24.311 323.606 28.04 324.081C29.947 324.275 30.78 325.113 30.54 326.587C30.305 327.87 28.597 328.387 25.407 328.104C16.207 327.364 8.607 327.404 2.614 328.222C0.941 328.452 0.108 327.772 0.108 326.182C0.108 325.169 0.941 324.587 2.614 324.432C6.414 324.002 8.326 320.659 8.326 314.404V264.496C8.326 261.934 7.869 259.962 6.958 258.581C6.047 257.2 4.342 255.945 1.858 254.821C0.303 254.121 -0.279 253.171 0.11 251.964C0.304 251.227 0.616 250.818 1.04 250.741C1.44 250.624 2.46 250.701 4.14 250.975C6.59 251.375 12.363 251.559 21.456 251.559C32.186 251.559 41.452 251.324 49.256 250.859C51.858 250.701 53.162 250.916 53.162 251.499C53.1623 251.656 53.1418 251.813 53.101 251.965L53.107 251.993ZM90.915 325.993C90.915 327.548 90.04 328.228 88.292 328.033C82.932 327.527 76.284 327.603 68.356 328.263C66.761 328.421 65.781 328.38 65.409 328.15C65.037 327.92 64.859 327.275 64.859 326.222C64.859 325.292 65.916 324.506 68.034 323.862C70.152 323.218 71.212 321.307 71.212 318.122V265.362C71.212 262.212 70.755 259.9 69.844 258.422C68.933 256.944 67.324 255.799 65.044 254.985C63.838 254.555 63.244 253.953 63.244 253.185C63.244 252.019 64.119 251.145 65.867 250.562C68.511 249.707 71.252 248.388 74.09 246.598C76.422 245.198 77.89 244.501 78.52 244.501C79.958 244.501 80.68 245.489 80.68 247.471C80.68 247.318 80.602 249.271 80.445 253.301C80.3314 257.09 80.2937 260.881 80.332 264.671L80.562 316.731C80.562 319.103 81.146 320.825 82.312 321.893C83.478 322.961 85.482 323.67 88.316 324.019C90.064 324.213 90.939 324.873 90.939 326.003L90.915 325.993ZM143.645 322.555C143.645 323.373 142.159 324.605 139.187 326.255C136.215 327.905 133.831 328.733 132.045 328.733C130.527 328.733 129.188 327.996 128.022 326.518C126.856 325.04 126.037 324.304 125.572 324.304C125.224 324.304 123.378 325.101 120.032 326.692C116.692 328.287 113.328 329.085 109.947 329.085C106.761 329.085 104.097 328.15 101.959 326.288C99.627 324.228 98.461 321.428 98.461 317.891C98.461 311.167 106.158 306.348 121.561 303.434C124.201 302.928 125.545 301.859 125.581 300.227L125.699 296.495C125.933 290.122 123.115 286.935 117.245 286.935C115.573 286.935 113.991 288.429 112.492 291.421C110.993 294.413 108.849 296.028 106.052 296.263C102.866 296.571 101.272 295.231 101.272 292.239C101.272 290.372 103.644 288.199 108.385 285.709C113.361 283.107 118.143 281.803 122.729 281.803C130.616 281.803 134.523 285.556 134.446 293.058L134.211 317.074C134.175 319.601 135.244 320.874 137.418 320.874C137.848 320.874 138.665 320.778 139.868 320.574C141.071 320.37 141.775 320.274 141.97 320.274C143.096 320.274 143.658 321.034 143.658 322.549L143.645 322.555ZM125.69 309.255C125.73 308.283 125.503 307.639 125.017 307.331C124.531 307.023 123.767 306.959 122.717 307.154C113.349 308.826 108.665 311.878 108.665 316.308C108.665 320.778 111.093 323.012 115.952 323.012C117.895 323.012 119.9 322.644 121.956 321.907C124.369 321.049 125.571 320.021 125.571 318.814L125.689 309.254L125.69 309.255ZM186.988 315.847C186.988 319.967 185.4 323.244 182.235 325.672C179.07 328.1 174.735 329.316 169.263 329.316C165.613 329.316 161.955 328.916 158.303 328.15C155.153 327.45 153.327 326.81 152.821 326.226C152.509 325.68 152.356 323.02 152.356 318.238C152.356 316.178 152.821 315.108 153.756 315.032C154.688 314.914 155.486 315.432 156.156 316.546C159.07 321.639 163.776 324.186 170.256 324.186C175.734 324.186 178.476 322.279 178.476 318.469C178.491 317.676 178.331 316.889 178.008 316.165C177.686 315.44 177.208 314.795 176.609 314.275C175.249 312.992 172.609 311.495 168.682 309.775C163.005 307.249 159.216 305.035 157.312 303.127C155.252 301.107 154.212 298.387 154.212 294.965C154.212 290.765 155.824 287.505 159.05 285.172C162.042 282.917 166.046 281.792 171.058 281.792C174.208 281.792 177.083 282.042 179.688 282.55C182.486 283.056 183.944 283.676 184.061 284.416C184.369 286.59 185.011 289.74 185.985 293.862C186.102 294.364 185.555 294.762 184.353 295.084C183.07 295.356 182.216 295.141 181.787 294.444C178.717 289.428 174.831 286.922 170.127 286.922C164.803 286.922 162.139 288.622 162.139 292.052C162.139 293.958 162.859 295.472 164.297 296.598C165.58 297.57 168.592 299.098 173.334 301.148C178.309 303.285 181.69 305.208 183.48 306.918C185.812 309.133 186.978 312.118 186.978 315.838L186.988 315.847ZM255.575 326.05C255.575 327.41 254.66 328.13 252.835 328.208C250.115 328.248 246.555 328.442 242.167 328.79C239.989 329.22 238.435 328.95 237.503 327.976C231.361 321.369 226.151 314.449 221.876 307.219C221.528 306.599 221.082 306.287 220.536 306.287C219.876 306.287 218.731 306.871 217.099 308.037C215.269 309.045 214.359 310.487 214.359 312.349C214.359 313.673 214.395 315.575 214.476 318.066C214.554 320.551 215.172 322.183 216.338 322.96C217.156 323.507 219.043 323.932 221.994 324.244C223.82 324.478 224.734 325.158 224.734 326.284C224.734 327.179 224.588 327.734 224.297 327.944C224.006 328.154 223.237 328.207 221.993 328.09C218.106 327.742 211.539 327.936 202.289 328.672C199.957 328.867 198.694 328.575 198.489 327.797C198.412 327.527 198.372 327.137 198.372 326.631C198.372 325.429 199.559 324.514 201.932 323.895C204.069 323.348 205.138 320.842 205.138 316.373V265.418C205.138 262.232 204.838 260.018 204.203 258.774C203.349 257.179 201.559 255.934 198.838 255.041C197.558 254.616 196.915 254.013 196.915 253.236C196.915 252.106 197.83 251.232 199.655 250.613C202.57 249.641 205.347 248.301 207.991 246.589C210.129 245.192 211.453 244.491 211.954 244.491C213.55 244.491 214.347 245.499 214.347 247.524C214.347 247.249 214.327 249.176 214.287 253.294L214.231 264.724L214.348 301.218C214.348 302.23 214.62 302.732 215.162 302.732C215.746 302.732 216.64 302.229 217.846 301.218C221.072 298.691 225.046 295.388 229.746 291.318C230.681 290.348 231.146 289.57 231.146 288.986C231.146 287.938 229.572 287.186 226.426 286.772C225.066 286.612 224.422 285.857 224.498 284.496C224.615 283.136 225.296 282.553 226.538 282.748C229.338 283.148 233.421 283.351 238.78 283.392L249.92 283.449C251.122 283.489 251.725 284.206 251.725 285.607C251.725 286.927 250.775 287.647 248.871 287.765C245.875 287.878 243.057 288.558 240.418 289.805C236.725 291.475 232.778 294.409 228.58 298.607C228.272 298.841 228.114 299.132 228.114 299.481C228.114 300.024 228.774 301.328 230.099 303.388C234.957 310.773 239.544 316.348 243.856 320.12C246.616 322.49 249.2 323.675 251.609 323.675C253.409 323.675 254.509 323.8 254.933 324.055C255.363 324.307 255.578 324.978 255.578 326.055L255.575 326.05Z" fill="#FFBC5E"/>
</svg>
