<svg width="32" height="32" viewBox="0 0 32 32" fill="none" xmlns="http://www.w3.org/2000/svg">
<path d="M29.472 14.753L17.247 2.52799C17.0797 2.36018 16.881 2.22703 16.6622 2.13618C16.4434 2.04533 16.2089 1.99857 15.972 1.99857C15.7351 1.99857 15.5005 2.04533 15.2817 2.13618C15.0629 2.22703 14.8642 2.36018 14.697 2.52799L12.158 5.06699L15.378 8.28698C15.7577 8.15777 16.166 8.13781 16.5565 8.22938C16.947 8.32096 17.304 8.52038 17.5866 8.80493C17.8693 9.08948 18.0664 9.44772 18.1554 9.83882C18.2444 10.2299 18.2217 10.6381 18.09 11.017L21.19 14.117C21.6533 13.9578 22.1573 13.9622 22.6178 14.1295C23.0783 14.2967 23.4676 14.6167 23.7208 15.0362C23.9741 15.4556 24.0759 15.9492 24.0094 16.4346C23.9429 16.92 23.712 17.368 23.3553 17.7039C22.9986 18.0398 22.5376 18.2433 22.0491 18.2805C21.5605 18.3178 21.074 18.1865 20.6705 17.9085C20.267 17.6305 19.971 17.2227 19.8317 16.753C19.6924 16.2833 19.7182 15.78 19.905 15.327L17.01 12.432V20.049C17.4485 20.2663 17.7994 20.6272 18.0041 21.0718C18.2088 21.5163 18.2551 22.0176 18.1352 22.4921C18.0152 22.9666 17.7364 23.3857 17.345 23.6795C16.9536 23.9734 16.4734 24.1243 15.9842 24.1071C15.4951 24.0899 15.0267 23.9057 14.6569 23.585C14.2871 23.2644 14.0383 22.8268 13.952 22.345C13.8657 21.8633 13.947 21.3665 14.1825 20.9375C14.4179 20.5084 14.7933 20.1729 15.246 19.987V16.1435V12.3C14.9841 12.1925 14.746 12.0343 14.5455 11.8345C14.345 11.6346 14.186 11.397 14.0778 11.1355C13.9695 10.8739 13.914 10.5935 13.9145 10.3104C13.9151 10.0273 13.9717 9.74713 14.081 9.48599L10.911 6.31399L2.52797 14.7C2.36001 14.8672 2.22674 15.066 2.1358 15.2849C2.04486 15.5038 1.99805 15.7385 1.99805 15.9755C1.99805 16.2125 2.04486 16.4472 2.1358 16.6661C2.22674 16.885 2.36001 17.0837 2.52797 17.251L14.753 29.472C14.9202 29.6398 15.1189 29.7729 15.3377 29.8638C15.5565 29.9546 15.7911 30.0014 16.028 30.0014C16.2649 30.0014 16.4994 29.9546 16.7182 29.8638C16.937 29.7729 17.1357 29.6398 17.303 29.472L29.472 17.3C29.6399 17.1327 29.7732 16.934 29.8641 16.7151C29.9551 16.4962 30.0019 16.2615 30.0019 16.0245C30.0019 15.7875 29.9551 15.5528 29.8641 15.3339C29.7732 15.115 29.6399 14.9162 29.472 14.749" fill="#FFBC5E"/>
</svg>
