<svg width="23" height="31" viewBox="0 0 23 31" fill="none" xmlns="http://www.w3.org/2000/svg">
<path d="M7.506 23.863L8.793 23.107L7.355 23.507C6.265 23.812 5.748 24.222 5.816 24.724C5.937 25.607 8.064 26.298 10.658 26.298C11.963 26.298 13.933 26.12 15.922 25.267L16.36 25.079L15.915 24.907C15.01 24.555 14.351 24.145 14.344 24.141L14.28 24.1L14.206 24.114C12.626 24.415 11.612 24.53 10.59 24.53C9.922 24.53 9.215 24.483 8.224 24.37C7.359 24.268 7.281 24.093 7.28 24.091C7.275 24.053 7.385 23.936 7.506 23.863Z" fill="#FFBC5E"/>
<path d="M9.883 29.107C15.573 29.107 20.612 28.025 20.888 26.746C20.939 26.51 20.865 26.17 20.224 25.881L18.98 25.32L20.019 26.207C20.021 26.207 20.172 26.34 20.141 26.486C20.121 26.582 19.988 26.832 19.179 27.076C17.501 27.584 13.737 27.939 10.025 27.939C6.561 27.939 3.892 27.642 2.701 27.123C2.553 27.059 2.521 27.01 2.518 27.01C2.554 26.828 3.443 26.44 4.189 26.28C4.653 26.18 4.966 26.169 5.08 26.169L5.828 26.214L5.266 25.819C5.076 25.684 4.784 25.616 4.397 25.616C2.978 25.616 0.362002 26.552 0.288002 27.473C0.230002 28.19 1.495 28.395 1.911 28.461C4.551 28.891 7.232 29.107 9.883 29.107Z" fill="#FFBC5E"/>
<path d="M7.791 19.938L6.648 20.317C5.425 20.723 4.871 21.167 4.953 21.671C5.107 22.63 7.642 23.06 10.087 23.06C12.208 23.06 14.456 22.744 16.417 22.171L16.996 22.001L16.427 21.8C15.747 21.562 15.305 21.118 15.3 21.114L15.227 21.04L15.125 21.06C13.2 21.431 11.679 21.597 10.19 21.597C9.356 21.597 8.492 21.546 7.388 21.431C6.607 21.351 6.516 21.16 6.505 21.122C6.472 20.999 6.669 20.774 6.825 20.657L7.791 19.938C8.189 19.948 8.508 19.95 8.688 19.95C11.541 19.95 14.276 19.663 16.191 19.157L16.252 19.13C16.788 18.765 17.544 18.439 17.552 18.435L19.108 17.767L17.441 18.064C17.42 18.07 15.221 18.46 13.063 18.642C12.551 18.685 12.033 18.718 11.517 18.746L12.312 18.336C12.395 18.295 14.348 17.27 14.719 15.743C14.872 15.113 14.736 14.494 14.313 13.898L14.118 13.626C13.498 12.766 13.009 12.086 13.172 11.325C13.394 10.289 14.854 9.03601 17.906 7.26501L19.096 6.57501L17.761 6.90801C17.534 6.96501 12.194 8.33201 11.248 11.329C10.863 12.549 11.266 13.856 12.445 15.215C12.806 15.632 12.971 16.072 12.934 16.522C12.864 17.374 12.106 18.008 12.098 18.014L11.188 18.766C9.108 18.871 7.134 18.86 6.091 18.719C5.241 18.606 5.114 18.473 5.108 18.471C5.191 18.233 6.507 17.737 7.989 17.385L9.23 17.09L7.957 17C7.957 17 7.882 16.994 7.743 16.994C7.088 16.994 5.34 17.101 3.268 18.103C3.088 18.189 2.543 18.453 2.637 18.861C2.831 19.703 6.064 19.896 7.791 19.938Z" fill="#FFBC5E"/>
<path d="M17.84 17.365L17.517 17.871L18.076 17.648C18.078 17.648 18.264 17.576 18.67 17.49C19.355 17.349 20.329 17.754 20.545 18.636C20.679 19.183 20.636 20.636 17.364 22.335L17.3 22.379L17.272 22.44C17.267 22.452 17.246 22.477 17.229 22.493L15.979 23.212L17.393 22.841C21.169 21.849 22.33 20.058 22.157 18.712C22.008 17.558 20.926 16.718 19.583 16.718C19.195 16.718 18.8 16.788 18.407 16.927C18.04 17.055 17.848 17.352 17.84 17.365Z" fill="#FFBC5E"/>
<path d="M11.147 17.285L11.824 17.896L11.455 17.062C11.203 16.492 10.812 15.934 10.434 15.396C9.122 13.528 7.883 11.762 11.4 8.986C13.764 7.119 15.016 5.28 15.12 3.518C15.213 1.941 14.33 1.039 14.292 1L13.791 0.5L13.966 1.186C14.75 4.278 12.693 5.888 10.515 7.594C9.458 8.421 8.367 9.276 7.685 10.299C6.201 12.525 8.476 14.873 11.147 17.285Z" fill="#FFBC5E"/>
<path d="M21.813 27.463C21.809 27.473 21.337 28.34 17.614 29.041C15.463 29.445 12.926 29.66 10.28 29.66C8.10401 29.66 6.01201 29.514 4.38801 29.246L3.67801 29.129L4.23301 29.588C4.30701 29.649 5.05201 30.19 8.46801 30.408C9.42401 30.471 10.429 30.5 11.456 30.5C13.922 30.5 21.976 30.289 22.185 27.559L22.258 26.571L21.813 27.463Z" fill="#FFBC5E"/>
</svg>
