<svg width="788" height="757" viewBox="0 0 788 757" fill="none" xmlns="http://www.w3.org/2000/svg">
<path d="M737.231 30.7692H443.385C431.077 30.7692 418.769 38.4615 418.769 50.7692V96.9231C418.769 109.231 429.538 123.077 443.385 123.077H564.923C578.769 123.077 586.462 138.462 575.692 147.692L314.154 409.231C304.923 418.462 304.923 432.308 314.154 441.538L346.462 473.846C355.692 483.077 369.538 483.077 378.769 473.846L640.308 212.308C649.538 203.077 664.923 209.231 664.923 223.077V344.615C664.923 356.923 677.231 370.769 689.538 370.769H734.154C746.462 370.769 757.231 356.923 757.231 344.615V52.3077C757.231 38.4615 749.538 30.7692 737.231 30.7692Z" fill="#FFBC5E"/>
<path d="M546.462 392.308L494.154 446.154C484.923 455.385 480.308 466.154 480.308 478.462V653.846C480.308 666.154 469.538 676.923 457.231 676.923H134.154C121.846 676.923 111.077 666.154 111.077 653.846V330.769C111.077 318.462 121.846 307.692 134.154 307.692H311.077C323.385 307.692 335.692 303.077 343.385 293.846L395.692 241.538C404.923 232.308 398.769 215.385 384.923 215.385H80.3077C46.4615 215.385 18.7692 243.077 18.7692 276.923V707.692C18.7692 741.538 46.4615 769.231 80.3077 769.231H511.077C544.923 769.231 572.615 741.538 572.615 707.692V403.077C572.615 389.231 555.692 383.077 546.462 392.308Z" fill="#FFBC5E"/>
</svg>
