<svg width="32" height="17" viewBox="0 0 32 17" fill="none" xmlns="http://www.w3.org/2000/svg">
<path d="M9.349 6.10898H8.088L7.401 9.63998H8.521C9.26 9.63998 9.812 9.49998 10.177 9.21898C10.536 8.94298 10.781 8.47398 10.906 7.82298C11.03 7.19798 10.973 6.75498 10.745 6.49498C10.51 6.23998 10.046 6.10898 9.349 6.10898ZM16 0.0839844C7.161 0.0839844 0 3.85498 0 8.49998C0 13.145 7.161 16.916 16 16.916C24.839 16.916 32 13.145 32 8.49998C32 3.85498 24.839 0.0839844 16 0.0839844ZM11.651 10.021C11.307 10.354 10.886 10.604 10.432 10.754C9.984 10.895 9.412 10.973 8.719 10.973H7.14L6.708 13.213H4.869L6.51 4.78098H10.041C11.104 4.78098 11.88 5.05698 12.369 5.61398C12.854 6.17098 13.005 6.95298 12.806 7.95298C12.734 8.34898 12.593 8.72898 12.401 9.08398C12.208 9.42098 11.964 9.73498 11.65 10.021H11.651ZM17.021 10.973L17.745 7.23998C17.828 6.81698 17.797 6.52698 17.65 6.36898C17.51 6.21798 17.202 6.13998 16.734 6.13998H15.281L14.344 10.973H12.516L14.156 2.53598H15.979L15.542 4.78098H17.167C18.194 4.78098 18.896 4.95798 19.282 5.31198C19.673 5.67198 19.787 6.24898 19.637 7.04698L18.87 10.974L17.021 10.973ZM27.145 7.95298C27.073 8.34898 26.937 8.72898 26.74 9.08398C26.552 9.42098 26.303 9.73498 25.995 10.021C25.646 10.349 25.23 10.604 24.771 10.754C24.323 10.895 23.75 10.973 23.058 10.973H21.485L21.048 13.213H19.209L20.85 4.78098H24.381C25.444 4.78098 26.22 5.05698 26.709 5.61998C27.194 6.17198 27.344 6.95298 27.145 7.95298ZM23.688 6.10898H22.432L21.745 9.63998H22.86C23.604 9.63998 24.156 9.49998 24.516 9.21898C24.88 8.94298 25.125 8.47398 25.251 7.82298C25.375 7.19798 25.318 6.75498 25.083 6.49498C24.855 6.23998 24.386 6.10898 23.688 6.10898Z" fill="#FFBC5E"/>
</svg>
