<svg width="1012" height="1025" viewBox="0 0 1012 1025" fill="none" xmlns="http://www.w3.org/2000/svg">
<path fill-rule="evenodd" clip-rule="evenodd" d="M505.847 757.779C505.847 768.365 505.847 777.967 505.847 788.611C586.751 788.611 667.222 788.611 747.632 788.611C747.632 826.193 747.632 862.74 747.622 899.283C747.622 899.611 747.458 899.935 747.401 900.267C742.06 931.253 724.812 954.388 699.76 972.273C668.774 994.392 633.199 1005.09 596.716 1013.54C511.552 1033.3 428.398 1026.41 348.131 992.303C329.051 984.196 311.23 971.508 295.277 958.03C272.431 938.723 261.407 912.466 261.377 882.198C261.304 804.151 260.572 726.096 261.602 648.065C262.527 577.874 316.991 525.26 387.133 525.055C465.108 524.828 543.1 523.969 621.051 525.285C699.86 526.619 766.818 466.5 777.688 391.642C778.939 383.031 779.065 374.21 779.113 365.48C779.276 334.869 779.177 304.256 779.177 273.643C779.177 270.038 779.177 266.43 779.177 261.805C791.694 261.805 803.031 261.805 814.37 261.805C832.518 261.807 850.67 261.947 868.818 261.782C912.003 261.387 944.198 280.228 966.24 317.093C982.336 344.01 990.363 373.774 997.182 404.013C1007.66 450.469 1014.01 497.318 1010.55 545.057C1006.48 601.207 990.254 653.905 963.423 703.172C942.863 740.924 910.17 758.049 867.256 757.906C751.303 757.525 635.349 757.777 519.397 757.779C515.083 757.779 510.769 757.779 505.847 757.779ZM642.96 850.91C617.226 850.658 596.951 870.668 596.739 896.521C596.525 922.314 616.552 943.408 641.651 943.828C666.678 944.246 687.66 923.4 687.93 897.842C688.203 871.842 668.386 851.158 642.96 850.91Z" fill="#FFBC5E"/>
<path fill-rule="evenodd" clip-rule="evenodd" d="M504.621 261.805C504.621 251.256 504.621 241.722 504.621 230.993C423.565 230.993 343.086 230.993 262.401 230.993C261.927 227.919 261.363 225.981 261.371 224.046C261.512 189.734 260.838 155.389 262.12 121.118C264.162 66.495 286.05 36.895 338.68 22.211C370.507 13.333 403.572 7.538 436.469 4.148C501.242 -2.527 566.073 -0.0339994 630.272 11.574C667.518 18.308 699.243 35.583 723.219 65.509C739.943 86.382 748.739 110.265 748.735 137.212C748.718 214.926 749.109 292.642 748.62 370.354C748.171 441.572 694.834 494.046 623.558 494.168C544.907 494.304 466.254 494.132 387.602 494.225C310.818 494.313 247.645 546.364 233.203 621.717C231.32 631.547 230.979 641.776 230.889 651.828C230.604 683.113 230.784 714.402 230.784 745.689C230.784 749.306 230.784 752.919 230.784 757.779C223.31 757.779 217.014 757.83 210.721 757.771C185.857 757.544 160.945 758.197 136.145 756.826C97.118 754.666 67.841 735.012 46.207 703.072C28.121 676.369 20.216 645.908 12.848 615.068C-6.20901 535.322 -2.62401 456.354 19.584 377.85C40.252 304.787 96.427 261.978 172.521 261.852C279.07 261.675 385.618 261.805 492.167 261.805C496.121 261.805 500.076 261.805 504.621 261.805ZM367.439 75.904C342.13 76.08 322.232 96.767 322.382 122.752C322.531 148.434 343.111 169.042 368.367 168.795C393.513 168.55 413.785 147.487 413.568 121.833C413.35 96.179 392.811 75.73 367.439 75.904Z" fill="#FFBC5E"/>
</svg>
