<svg width="32" height="32" viewBox="0 0 32 32" fill="none" xmlns="http://www.w3.org/2000/svg">
<g clip-path="url(#clip0_201_15)">
<path d="M16 0C24.839 0 32 7.161 32 16C32 24.839 24.839 32 16 32C7.161 32 0 24.839 0 16C0 7.161 7.161 0 16 0ZM12.817 21.328C13.052 22.193 13.026 22.995 12.786 23.719L12.702 23.959C12.671 24.042 12.63 24.12 12.598 24.194C12.411 24.585 12.161 24.943 11.859 25.277C10.926 26.288 9.63 26.673 9.072 26.35C8.468 26.001 8.769 24.569 9.848 23.427C11.009 22.203 12.676 21.416 12.676 21.416V21.412L12.817 21.328ZM26.036 6.849C25.312 4.005 20.599 3.073 16.14 4.656C13.484 5.599 10.615 7.079 8.547 9.011C6.088 11.307 5.698 13.307 5.86 14.14C6.432 17.088 10.469 19.021 12.131 20.448V20.459C11.64 20.698 8.058 22.495 7.219 24.36C6.318 26.317 7.36 27.719 8.036 27.896C10.136 28.479 12.297 27.416 13.459 25.697C14.579 24.016 14.479 21.86 13.995 20.797C14.656 20.62 15.438 20.536 16.438 20.656C19.241 20.979 19.798 22.74 19.678 23.459C19.558 24.178 18.979 24.599 18.777 24.719C18.58 24.839 18.517 24.875 18.537 24.959C18.558 25.079 18.657 25.079 18.818 25.058C19.037 25.022 20.277 24.459 20.339 23.099C20.396 21.375 18.755 19.459 15.839 19.495C14.636 19.522 13.875 19.62 13.339 19.839C13.298 19.782 13.255 19.74 13.198 19.698C11.397 17.761 8.058 16.402 8.198 13.818C8.241 12.881 8.579 10.402 14.599 7.402C19.536 4.938 23.479 5.621 24.156 7.121C25.136 9.261 22.057 13.241 16.917 13.818C14.958 14.037 13.937 13.282 13.677 13.001C13.396 12.698 13.36 12.678 13.254 12.741C13.098 12.818 13.197 13.08 13.254 13.241C13.415 13.641 14.035 14.34 15.119 14.698C16.056 15.001 18.359 15.178 21.119 14.099C24.218 12.902 26.635 9.563 25.936 6.76L26.036 6.849Z" fill="#FFBC5E"/>
</g>
<defs>
<clipPath id="clip0_201_15">
<rect width="32" height="32" fill="white"/>
</clipPath>
</defs>
</svg>
