<svg width="18" height="18" viewBox="0 0 18 18" fill="none" xmlns="http://www.w3.org/2000/svg">
<g clip-path="url(#clip0_211_2)">
<path d="M5.32528 10.1393C5.2151 10.1393 5.1059 10.105 5.01404 10.0382C4.86659 9.93104 4.78461 9.75561 4.79702 9.57378L4.87507 8.43243L4.14107 7.555C4.02418 7.41519 3.98737 7.22506 4.04366 7.05174C4.09998 6.87842 4.24148 6.74623 4.41828 6.70187L5.52788 6.42339L6.13559 5.45414C6.23241 5.29969 6.4019 5.20593 6.58415 5.20593C6.7664 5.20593 6.93589 5.29969 7.03271 5.45414L7.64042 6.42339L8.74995 6.70187C8.92672 6.74623 9.06822 6.87842 9.12458 7.05174C9.18086 7.22506 9.14405 7.41522 9.02716 7.555L8.29317 8.4325L8.37121 9.57385C8.38366 9.75571 8.30171 9.93114 8.15419 10.0383C8.00671 10.1454 7.81451 10.1692 7.64548 10.1012L6.58412 9.67426L5.52271 10.1012C5.45901 10.1267 5.39197 10.1393 5.32528 10.1393ZM5.49494 7.52319L5.82386 7.91637C5.91147 8.02121 5.95521 8.15582 5.94596 8.29216L5.91101 8.80361L6.38664 8.61229C6.51345 8.56132 6.65496 8.56132 6.78173 8.61229L7.25729 8.80358L7.22234 8.29216C7.21303 8.15582 7.25676 8.02121 7.34444 7.91637L7.67336 7.52319L7.17615 7.39842C7.04364 7.36516 6.92907 7.28194 6.85647 7.16617L6.58415 6.73185L6.31183 7.16617C6.23923 7.28194 6.12469 7.36512 5.99216 7.39842L5.49494 7.52319Z" fill="#FFBC5E"/>
<path d="M13.4528 7.27673H10.4352C10.1429 7.27673 9.90576 7.03971 9.90576 6.74731C9.90576 6.45492 10.1428 6.2179 10.4352 6.2179H13.4528C13.7451 6.2179 13.9822 6.45492 13.9822 6.74731C13.9822 7.03971 13.7452 7.27673 13.4528 7.27673Z" fill="#FFBC5E"/>
<path d="M12.3934 9.12732H10.4353C10.143 9.12732 9.90588 8.89029 9.90588 8.5979C9.90588 8.30551 10.1429 8.06848 10.4353 8.06848H12.3934C12.6858 8.06848 12.9229 8.30551 12.9229 8.5979C12.9228 8.89029 12.6858 9.12732 12.3934 9.12732Z" fill="#FFBC5E"/>
<path d="M7.84303 15.8609C7.77633 15.8609 7.70929 15.8483 7.64555 15.8227L6.58419 15.3958L5.52278 15.8227C5.35375 15.8907 5.16152 15.8669 5.01407 15.7598C4.86663 15.6527 4.78461 15.4772 4.79705 15.2954L4.8751 14.1541L4.14107 13.2766C4.02418 13.1367 3.98737 12.9466 4.04366 12.7733C4.09998 12.6 4.24148 12.4678 4.41828 12.4234L5.52788 12.145L6.13559 11.1757C6.23241 11.0213 6.4019 10.9275 6.58415 10.9275C6.7664 10.9275 6.93589 11.0213 7.03271 11.1757L7.64042 12.145L8.74995 12.4234C8.92672 12.4678 9.06822 12.6 9.12458 12.7733C9.18086 12.9466 9.14405 13.1367 9.02716 13.2766L8.29317 14.1541L8.37121 15.2954C8.38366 15.4773 8.30171 15.6527 8.15419 15.7598C8.06237 15.8266 7.95321 15.8609 7.84303 15.8609ZM5.49494 13.2449L5.82386 13.638C5.91147 13.7429 5.95521 13.8775 5.94596 14.0138L5.91101 14.5253L6.38664 14.334C6.51345 14.283 6.65496 14.283 6.78173 14.334L7.25729 14.5253L7.22234 14.0138C7.21303 13.8775 7.25676 13.7429 7.34444 13.638L7.67336 13.2449L7.17615 13.1201C7.04364 13.0868 6.92907 13.0036 6.85647 12.8878L6.58415 12.4535L6.31183 12.8878C6.23923 13.0036 6.12469 13.0868 5.99216 13.1201L5.49494 13.2449Z" fill="#FFBC5E"/>
<path d="M13.4528 12.9984H10.4352C10.1429 12.9984 9.90576 12.7613 9.90576 12.4689C9.90576 12.1765 10.1428 11.9395 10.4352 11.9395H13.4528C13.7451 11.9395 13.9822 12.1765 13.9822 12.4689C13.9822 12.7613 13.7452 12.9984 13.4528 12.9984Z" fill="#FFBC5E"/>
<path d="M12.3934 14.8489H10.4353C10.143 14.8489 9.90588 14.6119 9.90588 14.3195C9.90588 14.0271 10.1429 13.79 10.4353 13.79H12.3934C12.6858 13.79 12.9229 14.0271 12.9229 14.3195C12.9228 14.6119 12.6858 14.8489 12.3934 14.8489Z" fill="#FFBC5E"/>
<path d="M11.3824 3.70589C11.3824 3.99829 11.6194 4.23531 11.9118 4.23531H15.6178C15.9102 4.23531 16.1472 3.99829 16.1472 3.70589V2.0134C16.1472 1.721 15.9102 1.48398 15.6178 1.48398H12.4412V0.529418C12.4412 0.237023 12.2041 0 11.9118 0H6.08823C5.79591 0 5.55881 0.237023 5.55881 0.529418V1.48402H2.3822C2.08988 1.48402 1.85278 1.72104 1.85278 2.01343V3.70593V17.4706C1.85278 17.763 2.08984 18 2.3822 18H15.6178C15.9102 18 16.1472 17.763 16.1472 17.4706V6.74729C16.1472 6.4549 15.9102 6.21787 15.6178 6.21787C15.3255 6.21787 15.0884 6.4549 15.0884 6.74729V16.9412H2.91162V4.23531H6.08823H9.8137C10.106 4.23531 10.3431 3.99829 10.3431 3.70589C10.3431 3.4135 10.1061 3.17647 9.8137 3.17647H6.61765V2.0134V1.05884H11.3823V2.0134V3.70589H11.3824ZM2.91162 2.54282H5.55885V3.17647H2.91162V2.54282ZM15.0884 3.17647H12.4412V2.54282H15.0884V3.17647Z" fill="#FFBC5E"/>
</g>
<defs>
<clipPath id="clip0_211_2">
<rect width="18" height="18" fill="white"/>
</clipPath>
</defs>
</svg>
