<svg width="555" height="517" viewBox="0 0 555 517" fill="none" xmlns="http://www.w3.org/2000/svg">
<path d="M210.375 268.375H229.5C240.975 268.375 248.625 277.937 248.625 287.5H267.75C267.75 266.463 250.538 249.25 229.5 249.25H210.375C189.337 249.25 172.125 266.463 172.125 287.5C172.125 308.537 189.337 325.75 210.375 325.75H229.5C240.975 325.75 248.625 333.4 248.625 344.875C248.625 356.35 240.975 364 229.5 364H210.375C198.9 364 191.25 354.438 191.25 344.875H172.125C172.125 365.912 189.337 383.125 210.375 383.125H229.5C250.538 383.125 267.75 365.912 267.75 344.875C267.75 323.838 250.538 306.625 229.5 306.625H210.375C198.9 306.625 191.25 298.975 191.25 287.5C191.25 276.025 198.9 268.375 210.375 268.375Z" fill="#FFBC5E"/>
<path d="M497.25 191.875H363.375V134.5L248.625 0.625H38.25C17.212 0.625 0 17.837 0 38.875V478.75C0 499.787 17.212 517 38.25 517H325.125C346.162 517 363.375 499.787 363.375 478.75V440.5H497.25C529.763 440.5 554.625 415.638 554.625 383.125V249.25C554.625 216.737 529.763 191.875 497.25 191.875ZM248.625 29.312L338.513 134.5H267.75C258.188 134.5 248.625 124.938 248.625 115.375V29.312ZM344.25 478.75C344.25 488.312 336.6 497.875 325.125 497.875H38.25C28.688 497.875 19.125 490.225 19.125 478.75V38.875C19.125 29.313 26.775 19.75 38.25 19.75H229.5V115.375C229.5 136.413 246.712 153.625 267.75 153.625H344.25V191.875H172.125C139.612 191.875 114.75 216.737 114.75 249.25V383.125C114.75 415.638 139.612 440.5 172.125 440.5H344.25V478.75ZM535.5 383.125C535.5 404.162 518.287 421.375 497.25 421.375H172.125C151.087 421.375 133.875 404.162 133.875 383.125V249.25C133.875 228.212 151.087 211 172.125 211H497.25C518.287 211 535.5 228.212 535.5 249.25V383.125Z" fill="#FFBC5E"/>
<path d="M382.5 344.875V287.5C382.5 266.463 365.287 249.25 344.25 249.25H325.125C304.088 249.25 286.875 266.463 286.875 287.5V344.875C286.875 365.912 304.088 383.125 325.125 383.125H344.25C348.075 383.125 353.812 383.125 357.638 381.213L374.85 398.425L388.238 385.037L372.938 369.737C378.675 364 382.5 354.438 382.5 344.875ZM363.375 344.875C363.375 348.7 361.463 352.525 359.55 356.35L332.776 329.576L319.388 342.964L340.425 364.001H325.125C313.65 364.001 306 356.351 306 344.876V287.5C306 276.025 313.65 268.375 325.125 268.375H344.25C355.725 268.375 363.375 276.025 363.375 287.5V344.875Z" fill="#FFBC5E"/>
<path d="M420.75 249.25H401.625V383.125H497.25V364H420.75V249.25Z" fill="#FFBC5E"/>
</svg>
