<svg width="18" height="18" viewBox="0 0 18 18" fill="none" xmlns="http://www.w3.org/2000/svg">
<path d="M3.72651 17.8313H17.8312V15.75L16.214 12.6984L15.2578 13.2047L16.7484 16.0172V16.7484H14.3578L14.9203 9.99844H2.91089L3.72651 17.8313ZM13.7531 11.0813L13.275 16.7484H4.69683L4.1062 11.0813H13.7531Z" fill="#FFBC5E"/>
<path d="M12.7687 5.34376C12.7687 3.26251 11.0812 1.57501 8.99995 1.57501C6.9187 1.57501 5.2312 3.26251 5.2312 5.34376C5.2312 7.42501 6.9187 9.11251 8.99995 9.11251C11.0812 9.11251 12.7687 7.42501 12.7687 5.34376ZM6.29995 5.34376C6.29995 3.85314 7.50933 2.64376 8.99995 2.64376C10.4906 2.64376 11.7 3.85314 11.7 5.34376C11.7 6.83439 10.4906 8.04376 8.99995 8.04376C7.50933 8.04376 6.29995 6.83439 6.29995 5.34376Z" fill="#FFBC5E"/>
<path d="M2.7281 13.2188L1.77185 12.7125L0.154663 15.75V17.8313H2.53123V16.7625H1.23748V16.0313L2.7281 13.2188Z" fill="#FFBC5E"/>
<path d="M8.85938 14.3438C9.17004 14.3438 9.42188 14.0919 9.42188 13.7812C9.42188 13.4706 9.17004 13.2188 8.85938 13.2188C8.54871 13.2188 8.29688 13.4706 8.29688 13.7812C8.29688 14.0919 8.54871 14.3438 8.85938 14.3438Z" fill="#FFBC5E"/>
</svg>
